first trial
nRows=13
nColumns=38

# SIMM Motion File Header:
name Sujet_04_velo_80.mvnx
datacolumns 38
datarows 13
otherdata 1
range 0.0000 0.2000
endheader
time pelvis_tilt  pelvis_list  pelvis_rotation  pelvis_tx  pelvis_ty  pelvis_tz  hip_flexion_r  hip_adduction_r  hip_rotation_r  knee_angle_r  ankle_angle_r  subtalar_angle_r  mtp_angle_r  hip_flexion_l  hip_adduction_l  hip_rotation_l  knee_angle_l  ankle_angle_l  subtalar_angle_l  mtp_angle_l  lumbar_extension  lumbar_bending  lumbar_rotation  arm_flex_r  arm_add_r  arm_rot_r  elbow_flex_r  pro_sup_r  wrist_flex_r  wrist_dev_r  arm_flex_l  arm_add_l  arm_rot_l  elbow_flex_l  pro_sup_l  wrist_flex_l  wrist_dev_l
0.0000	-19.7191	6.0696	-43.1281	0.0000	1.2500	-0.0000	89.4074	-9.6749	7.5913	94.5980	14.6870	2.3300	-0.0000	50.2309	-3.3684	-13.5050	59.1201	-0.5723	10.4468	0.0000	-17.9899	1.5171	-1.2802	77.8290	-6.5011	29.8391	27.0353	58.7230	-29.5483	-14.7247	78.6695	7.4740	27.2629	15.1014	60.6895	-29.8995	-23.6430	
0.0170	-19.2858	6.0067	-42.8223	0.0000	1.2500	-0.0000	87.0995	-10.0094	8.1225	90.4108	14.0950	2.4653	0.0000	51.3049	-3.2246	-13.1525	63.5969	0.4546	10.9773	-0.0000	-18.1206	1.5228	-1.2863	77.3715	-6.5608	29.8018	27.1921	58.6125	-29.4150	-14.6907	78.6703	7.4308	27.2905	15.0144	60.8025	-29.7374	-23.5503	
0.0330	-18.8527	5.9415	-42.5166	0.0000	1.2500	-0.0000	84.7864	-10.3533	8.6291	86.1962	13.5051	2.6166	-0.0000	52.3776	-3.0656	-12.8068	68.1034	1.4782	11.5130	-0.0000	-18.2514	1.5292	-1.2919	76.9138	-6.6192	29.7644	27.3485	58.5023	-29.2816	-14.6566	78.6712	7.3877	27.3182	14.9278	60.9157	-29.5759	-23.4582	
0.0500	-18.4743	6.0105	-42.1872	0.0000	1.2500	-0.0000	82.2913	-10.6651	8.7926	81.8558	12.7388	2.7902	-0.0000	53.7213	-2.8756	-12.4250	72.6604	2.4512	11.8858	0.0000	-18.3635	1.4968	-1.3135	76.4556	-6.6268	29.6332	27.4516	58.4971	-29.1403	-14.5890	78.6736	7.3971	27.3344	14.8425	61.0737	-29.4270	-23.3533	
0.0670	-18.1721	6.3096	-41.8388	0.0000	1.2500	-0.0000	79.5355	-10.8937	8.3857	77.3249	11.6828	2.9966	-0.0000	55.4611	-2.6195	-11.9984	77.3381	3.3518	11.9968	-0.0000	-18.4559	1.3948	-1.3549	75.9937	-6.5892	29.4509	27.4977	58.6011	-29.0035	-14.4702	78.7030	7.4925	27.3202	14.7520	61.3201	-29.2875	-23.2252	
0.0830	-17.9215	6.7429	-41.4688	0.0000	1.2500	-0.0000	76.6013	-11.0595	7.6301	72.7364	10.4432	3.2182	-0.0000	57.4737	-2.3314	-11.5563	82.0328	4.2048	11.9321	-0.0000	-18.5307	1.2539	-1.4128	75.5324	-6.5015	29.1745	27.4940	58.8102	-28.8587	-14.3182	78.7329	7.6404	27.2940	14.6626	61.6111	-29.1608	-23.0845	
0.1000	-17.7079	7.1573	-41.0427	0.0000	1.2500	-0.0000	73.5509	-11.2297	6.8732	68.2745	9.1746	3.4038	-0.0000	59.6591	-2.0908	-11.1103	86.4976	5.0357	11.8001	-0.0000	-18.5743	1.1272	-1.4940	75.0841	-6.2975	28.5819	27.4083	59.2166	-28.6608	-14.1537	78.6869	7.7917	27.3001	14.5943	61.8598	-29.0688	-22.9488	
0.1160	-17.5314	7.5071	-40.5336	0.0000	1.2500	-0.0000	70.3294	-11.4316	6.1866	63.8949	7.9341	3.5129	0.0000	62.0293	-1.9237	-10.6432	90.7284	5.8966	11.6377	-0.0000	-18.5730	1.0307	-1.6060	74.6118	-5.8450	27.4205	27.1927	59.9975	-28.3786	-13.9823	78.5242	7.9374	27.3485	14.5656	62.0350	-29.0376	-22.8107	
0.1330	-17.3915	7.8387	-39.9672	0.0000	1.2500	-0.0000	66.9880	-11.6230	5.4827	59.6247	6.6685	3.5867	0.0000	64.5741	-1.7913	-10.1738	94.7290	6.7335	11.4136	0.0000	-18.5405	0.9473	-1.7411	74.1696	-5.2725	25.9460	26.9235	60.9750	-28.0415	-13.8005	78.2856	8.0855	27.4294	14.5582	62.1682	-29.0404	-22.6769	
0.1500	-17.2735	8.1371	-39.3857	0.0000	1.2500	-0.0000	63.7438	-11.7942	4.8738	55.7158	5.3714	3.6852	-0.0000	67.1579	-1.6754	-9.7547	98.2749	7.4152	11.1389	0.0000	-18.5028	0.8806	-1.8828	73.8909	-4.9070	24.6965	26.7247	61.7083	-27.6947	-13.6130	78.0180	8.2116	27.5570	14.5366	62.2668	-29.0206	-22.5859	
0.1660	-17.1741	8.4066	-38.7497	0.0000	1.2500	-0.0000	60.6033	-11.9711	4.4311	52.1573	3.9704	3.8326	0.0000	69.7935	-1.5664	-9.3606	101.3199	7.8070	10.7905	-0.0000	-18.4659	0.8411	-2.0402	73.9137	-4.9134	23.8213	26.5894	62.0924	-27.3636	-13.4219	77.7266	8.3125	27.7522	14.4764	62.3194	-28.9417	-22.5627	
0.1830	-17.0972	8.6434	-38.0982	0.0000	1.2500	-0.0000	57.5566	-12.1412	4.0859	48.9465	2.5355	4.0100	-0.0000	72.4682	-1.4739	-9.0167	103.9139	8.0441	10.3997	0.0000	-18.4235	0.8182	-2.2043	74.0808	-5.1306	23.1688	26.4933	62.2330	-27.0221	-13.2202	77.4064	8.3916	27.9944	14.4016	62.3372	-28.8400	-22.5823	
0.2000	-17.0411	8.8205	-37.5917	0.0000	1.2500	-0.0000	54.8009	-12.2554	3.7661	46.3464	1.2709	4.2080	0.0000	75.0057	-1.4287	-8.8339	105.9758	8.4005	10.0631	0.0000	-18.3828	0.7845	-2.3315	74.0676	-5.3959	22.8224	26.5084	62.0043	-26.6377	-12.9957	77.0888	8.4344	28.2359	14.3482	62.3604	-28.7685	-22.6089	
